# xmcd
#
# Track frame offsets:
#	150
#	10651
#	28332
#	42325
#	63616
#	82461
#	96101
#	107049
#	129792
#	149245
#	166614
#	184559
#	192188
#	208696
#	218830
#	241217
#
# Disc length: 3437 seconds
# Revision: 0
# Processed by: cddbd v1.5.2PL0 Copyright (c) Steve Scherf et al.
# Submitted via: dBpowerAMP V12.0
#
DISCID=e40d6b10
DTITLE=The Rockin' M Wranglers - Sangre De Cristos
DYEAR=1900
DGENRE=Country
TTITLE0=For a Cowboy has to Sing (Bob Nolan)
TTITLE1=In My Adobe Hacienda (Louis Massey)
TTITLE2=Ragtime Cowboy Joe/I'm an Old Cowhand (J. Mercer)
TTITLE3=Colorado (Dave Kerby)
TTITLE4=Riding Down the Canyon (Gene Autry/Smiley Burnett)
TTITLE5=Don't Fence Me In (Cole Porter)
TTITLE6=The Night Herding Song (Traditional)
TTITLE7=The Call the Wind Mariah (Lerner and Lowe)
TTITLE8=Sangre De Cristos (Jack Hannahs-Sierra Nevada)
TTITLE9=Ponies (Michael Johnson)
TTITLE10=Cool Water (Bob Nolan)
TTITLE11=Tumbling Tumbleweeds (Bob Nolan)
TTITLE12=Ghost Riders in the Sky (Stan Jones)
TTITLE13=Rawhide (Sheb Wooley)
TTITLE14=El Paso (Marty Robbins)
TTITLE15=Yodel Your Troubles Away/Payday (Gene Autry/Jay Long)
EXTD=
EXTT0=
EXTT1=
EXTT2=
EXTT3=
EXTT4=
EXTT5=
EXTT6=
EXTT7=
EXTT8=
EXTT9=
EXTT10=
EXTT11=
EXTT12=
EXTT13=
EXTT14=
EXTT15=
PLAYORDER=
